<svg xmlns="http://www.w3.org/2000/svg" xmlns:xlink="http://www.w3.org/1999/xlink" width="512" height="512" viewBox="0 0 512 512">
  <defs>
    <linearGradient id="bg-grad" x1="85.35533905932738%" y1="85.35533905932738%" x2="14.644660940672615%" y2="14.64466094067263%">
        <stop offset="0%" stop-color="#6366f1"/>
        <stop offset="100%" stop-color="#A4C5EA"/>
      </linearGradient>
    <clipPath id="canvas-clip">
      <rect width="512" height="512" rx="140" ry="140"/>
    </clipPath>
  </defs>
  <rect width="512" height="512" rx="140" ry="140" fill="url(#bg-grad)"  clip-path="url(#canvas-clip)"/>
  <g clip-path="url(#canvas-clip)">
    <g transform="rotate(0, 256, 256)">
      
      <g transform="translate(103 103) scale(12.791666666666666 12.791666666666666) translate(0 0)"><path fill="none" stroke="#FFFFFF" stroke-linecap="round" stroke-linejoin="round" stroke-width="2" d="M5 22h14M5 2h14m-2 20v-4.172a2 2 0 0 0-.586-1.414L12 12l-4.414 4.414A2 2 0 0 0 7 17.828V22M7 2v4.172a2 2 0 0 0 .586 1.414L12 12l4.414-4.414A2 2 0 0 0 17 6.172V2"/></g>
    </g>
  </g>
</svg>